<svg xmlns="http://www.w3.org/2000/svg" version="1.1" viewBox="0 0 630 630">

<!--
The MIT License (MIT)

Copyright (c) 2011 Christopher Williams <chris@iterativedesigns.com>,
                     Manuel Strehl <boldewyn@gmail.com>

Permission is hereby granted, free of charge, to any person obtaining a copy
of this software and associated documentation files (the "Software"), to deal
in the Software without restriction, including without limitation the rights
to use, copy, modify, merge, publish, distribute, sublicense, and/or sell
copies of the Software, and to permit persons to whom the Software is
furnished to do so, subject to the following conditions:

The above copyright notice and this permission notice shall be included in
all copies or substantial portions of the Software.

THE SOFTWARE IS PROVIDED "AS IS", WITHOUT WARRANTY OF ANY KIND, EXPRESS OR
IMPLIED, INCLUDING BUT NOT LIMITED TO THE WARRANTIES OF MERCHANTABILITY,
FITNESS FOR A PARTICULAR PURPOSE AND NONINFRINGEMENT. IN NO EVENT SHALL THE
AUTHORS OR COPYRIGHT HOLDERS BE LIABLE FOR ANY CLAIM, DAMAGES OR OTHER
LIABILITY, WHETHER IN AN ACTION OF CONTRACT, TORT OR OTHERWISE, ARISING FROM,
OUT OF OR IN CONNECTION WITH THE SOFTWARE OR THE USE OR OTHER DEALINGS IN
THE SOFTWARE.
-->

<mask id="mask">
	<rect x="0" y="0" width="630" height="630" fill="white"/>
	<path d="m212,497c11,17,20,31,40,31,19,0,32-8,32-37v-201h59v202c0,61-36,89-88,89-47,0-75-25-89-54" fill="black"/>
	<path d="m423,492c13,21,29,36,58,36,25,0,40-12,40-29,0-20-16-27-43-39l-15-6c-43-18-71-41-71-89,0-44,34-78,87-78,38,0,65,13,84,47l-46,30c-10-18-21-25-38-25-17,0-28,11-28,25,0,18,11,25,36,36l15,6c50,22,79,44,79,93,0,53-42,82-98,82-55,0-91-26-108-60" fill="black"/>
</mask>

<rect mask="url(#mask)" fill="black" x="0" y="0" width="630" height="630"/>
</svg>